<?xml version="1.0" standalone="no"?>
<!DOCTYPE svg PUBLIC "-//W3C//DTD SVG 20010904//EN"
 "http://www.w3.org/TR/2001/REC-SVG-20010904/DTD/svg10.dtd">
<svg version="1.0" xmlns="http://www.w3.org/2000/svg"
 width="114.000000pt" height="114.000000pt" viewBox="0 0 114.000000 114.000000"
 preserveAspectRatio="xMidYMid meet">
<metadata>
Created by potrace 1.11, written by Peter Selinger 2001-2013
</metadata>
<g transform="translate(0.000000,114.000000) scale(0.100000,-0.100000)"
fill="#000000" stroke="none">
<path d="M430 1130 c15 -9 1 -18 -22 -15 -10 2 -18 -1 -18 -6 0 -6 -4 -8 -9
-4 -5 3 -12 1 -16 -5 -3 -5 -15 -10 -26 -10 -10 0 -19 -5 -19 -11 0 -5 -4 -7
-10 -4 -5 3 -10 1 -10 -5 0 -6 -4 -8 -10 -5 -5 3 -10 1 -10 -4 0 -6 -6 -11
-14 -11 -8 0 -29 -13 -47 -30 -18 -16 -37 -26 -43 -23 -6 3 -8 3 -4 -1 4 -5
-9 -24 -27 -43 -19 -20 -33 -38 -31 -42 4 -8 -31 -41 -37 -34 -3 2 -4 -7 -3
-21 2 -14 -2 -24 -8 -23 -6 1 -10 -4 -8 -10 1 -7 -2 -13 -8 -13 -6 0 -9 -3 -8
-7 1 -5 -3 -18 -10 -30 -7 -13 -9 -23 -5 -23 4 0 1 -5 -7 -10 -11 -7 -11 -10
-2 -10 7 0 10 -5 7 -10 -4 -6 -12 -7 -18 -3 -7 4 -5 -2 3 -12 8 -10 10 -16 3
-11 -10 5 -12 -21 -11 -116 0 -68 5 -126 11 -129 5 -4 10 -23 11 -43 1 -25 6
-36 16 -36 13 0 13 -1 0 -10 -10 -6 -11 -10 -2 -10 6 0 12 -9 12 -20 0 -10 8
-24 18 -29 13 -8 14 -11 2 -11 -13 -1 -13 -2 1 -13 8 -7 18 -20 22 -29 3 -10
13 -18 22 -18 8 0 15 -9 15 -20 0 -11 4 -20 9 -20 5 0 13 -9 16 -21 4 -11 9
-18 12 -15 10 9 33 -15 26 -27 -3 -6 -1 -7 5 -3 6 4 21 -3 32 -14 11 -11 26
-18 32 -14 7 4 8 3 4 -5 -5 -7 4 -16 23 -24 17 -7 29 -16 25 -19 -3 -4 3 -4
15 -1 12 3 21 1 21 -5 0 -5 7 -13 16 -16 9 -4 13 -2 8 5 -5 8 -1 8 13 0 11 -6
24 -7 28 -3 5 4 6 0 3 -9 -4 -9 -1 -16 8 -16 7 0 10 5 7 11 -4 6 0 6 8 -1 10
-8 56 -12 139 -11 102 1 127 4 138 17 10 12 12 12 6 1 -7 -13 -5 -13 9 -1 14
11 17 11 17 0 0 -12 2 -12 9 -1 4 8 12 14 17 14 5 0 8 4 7 8 -1 5 5 7 15 5 9
-1 28 7 41 19 13 11 21 15 17 8 -7 -11 -4 -11 15 0 13 7 28 19 32 26 4 6 13
12 19 12 6 0 38 28 72 62 34 34 55 58 49 54 -9 -5 -11 -2 -7 8 3 9 10 13 15
10 8 -5 13 9 10 29 0 4 7 7 17 8 11 0 12 2 4 6 -9 3 -7 10 9 24 15 13 17 19 8
19 -10 1 -8 5 5 15 11 8 16 15 10 15 -5 0 -2 5 6 10 11 7 11 10 2 10 -7 0 -10
5 -7 10 4 6 12 7 18 3 7 -4 5 2 -3 12 -8 10 -10 16 -3 12 9 -6 12 33 12 157 0
128 -3 165 -13 169 -8 3 -13 18 -13 33 -1 16 -6 30 -12 32 -6 2 -11 13 -11 23
0 13 -4 18 -12 13 -7 -5 -9 -2 -5 9 3 9 0 18 -9 21 -8 3 -14 12 -14 21 0 8 -5
15 -11 15 -5 0 -7 5 -4 10 3 6 -1 10 -10 10 -9 0 -13 4 -10 10 3 5 -5 15 -19
21 -14 7 -23 16 -20 20 2 4 -9 15 -26 24 -16 8 -30 20 -30 26 0 6 -7 8 -16 5
-8 -3 -12 -2 -9 4 3 6 -1 10 -9 10 -9 0 -16 5 -16 11 0 5 -4 7 -10 4 -5 -3
-10 -1 -10 5 0 7 -7 9 -16 6 -8 -3 -12 -2 -9 4 3 6 -3 10 -14 10 -11 0 -37 10
-57 22 -21 12 -35 17 -31 11 8 -13 -18 -12 -30 2 -4 4 -2 5 6 0 10 -6 12 -4 7
4 -6 9 -11 9 -24 -1 -9 -7 -13 -8 -9 -2 11 19 -184 15 -205 -4 -10 -8 -18 -10
-18 -4 0 6 6 12 13 15 6 2 -1 4 -17 4 -16 0 -23 -3 -16 -7z"/>
<path d="M0 431 c0 -6 4 -13 10 -16 6 -3 7 1 4 9 -7 18 -14 21 -14 7z"/>
</g>
</svg>
