<?xml version="1.0" encoding="UTF-8" standalone="no"?>
<svg
   xmlns:dc="http://purl.org/dc/elements/1.1/"
   xmlns:cc="http://creativecommons.org/ns#"
   xmlns:rdf="http://www.w3.org/1999/02/22-rdf-syntax-ns#"
   xmlns:svg="http://www.w3.org/2000/svg"
   xmlns="http://www.w3.org/2000/svg"
   viewBox="0 0 60 64"
   height="64"
   width="60"
   xml:space="preserve"
   id="svg2"
   version="1.1"><metadata
     id="metadata8"><rdf:RDF><cc:Work
         rdf:about=""><dc:format>image/svg+xml</dc:format><dc:type
           rdf:resource="http://purl.org/dc/dcmitype/StillImage" /></cc:Work></rdf:RDF></metadata><defs
     id="defs6" /><g
     transform="matrix(1.3333333,0,0,-1.3333333,0,64)"
     id="g10"><g
       transform="scale(0.1)"
       id="g12"><path
         id="path14"
         style="fill:#000000;fill-opacity:1;fill-rule:nonzero;stroke:none"
         d="m 440,448.012 h -56.02 v 23.976 c 0,4.422 -3.55,8.012 -7.96,8.012 H 320 c -4.41,0 -8.012,-3.59 -8.012,-8.012 V 448.012 H 136.02 v 23.976 c 0,4.422 -3.598,8.012 -8.008,8.012 H 71.9883 c -4.4102,0 -8.0078,-3.59 -8.0078,-8.012 V 448.012 H 8.01172 C 3.58984,448.012 0,444.41 0,440 V 8.01172 C 0,3.58984 3.58984,0 8.01172,0 H 440 c 4.41,0 8.012,3.58984 8.012,8.01172 V 440 c 0,4.41 -3.602,8.012 -8.012,8.012 z M 328.012,463.98 h 40 v -47.96 h -40 z M 80,463.98 h 40 V 416.02 H 80 Z M 16.0195,431.988 h 47.961 v -23.976 c 0,-4.422 3.5976,-8.012 8.0078,-8.012 h 56.0237 c 4.41,0 8.008,3.59 8.008,8.012 v 23.976 H 311.988 V 408.012 C 311.988,403.59 315.59,400 320,400 h 56.02 c 4.41,0 7.96,3.59 7.96,8.012 v 23.976 h 48.008 V 360 H 16.0195 Z m 0,-415.9685 V 343.98 H 431.988 V 16.0195 Z" /><path
         id="path16"
         style="fill:#000000;fill-opacity:1;fill-rule:nonzero;stroke:none"
         d="M 288.012,296.02 H 71.9883 V 63.9805 H 376.02 V 296.02 Z M 231.988,280 h 56.024 v -56.02 h -56.024 z m 56.024,-128.012 h -56.024 v 56.024 h 56.024 z M 160,208.012 h 56.02 V 151.988 H 160 Z M 160,280 h 56.02 V 223.98 H 160 Z m -71.9883,0 H 143.98 V 223.98 H 88.0117 Z m 0,-71.988 H 143.98 V 151.988 H 88.0117 Z M 143.98,80 H 88.0117 v 56.02 H 143.98 Z m 72.04,0 H 160 v 56.02 h 56.02 z m 71.992,0 h -56.024 v 56.02 h 56.024 z M 360,80 h -56.02 v 56.02 H 360 Z m 0,71.988 h -56.02 v 56.024 H 360 Z M 360,280 V 223.98 H 303.98 V 280 Z" /></g></g></svg>