<?xml version="1.0" encoding="utf-8"?>
<!-- Generator: Adobe Illustrator 21.0.2, SVG Export Plug-In . SVG Version: 6.00 Build 0)  -->
<svg version="1.1" id="Layer_1" xmlns="http://www.w3.org/2000/svg" xmlns:xlink="http://www.w3.org/1999/xlink" x="0px" y="0px"
	 width="175.6093903px" height="57.5522003px" viewBox="0 0 175.6093903 57.5522003"
	 style="enable-background:new 0 0 175.6093903 57.5522003;" xml:space="preserve">
<style type="text/css">
	.st0{fill:url(#SVGID_1_);}
	.st1{fill:url(#SVGID_2_);}
	.st2{fill:url(#SVGID_3_);}
	.st3{fill:#006D94;}
</style>
<g>
	<g>
		<radialGradient id="SVGID_1_" cx="28.6499557" cy="28.7761002" r="28.8426857" gradientUnits="userSpaceOnUse">
			<stop  offset="0.356262" style="stop-color:#E1EECB"/>
			<stop  offset="0.7094271" style="stop-color:#CCE6C6"/>
			<stop  offset="1" style="stop-color:#B6DEC0"/>
		</radialGradient>
		<ellipse class="st0" cx="28.6499767" cy="28.7762508" rx="28.8452625" ry="28.8401089"/>
		<radialGradient id="SVGID_2_" cx="27.044342" cy="30.9138947" r="26.9723186" gradientUnits="userSpaceOnUse">
			<stop  offset="0.337556" style="stop-color:#6BCBDC"/>
			<stop  offset="1" style="stop-color:#43AABA"/>
		</radialGradient>
		<path class="st1" d="M54.2800827,42.020092c-7.3296661,4.7312012-25.9667301-10.9686413-26.1321983-11.1027393
			c-7.3404903-5.9057083-11.7829494-13.640173-13.6621208-20.9365673l0,0
			c-0.4561119-1.8934021-0.7752085-3.8185749-0.9562216-5.7623887l-0.0010023-0.0068154
			C5.2934628,9.2902527-0.1953079,18.3924541-0.1953079,28.7764015c0,15.9274483,12.915453,28.8398056,28.8453083,28.8398056
			c11.1575642,0,20.8362446-6.3343582,25.6339931-15.6029282L54.2800827,42.020092z"/>
		<radialGradient id="SVGID_3_" cx="30.5267143" cy="30.916851" r="26.8338184" gradientUnits="userSpaceOnUse">
			<stop  offset="0.30324" style="stop-color:#008AB2"/>
			<stop  offset="0.7065707" style="stop-color:#007AA2"/>
			<stop  offset="1" style="stop-color:#006D94"/>
		</radialGradient>
		<path class="st2" d="M7.954669,43.0874634c0.7663002-0.0587311,4.0372601-0.3562927,7.1603918-0.6837196
			c1.6824341,0.5892105,2.5271091,2.0039482,1.8097153,3.169136c-2.7189331,0.7482605-6.0338907,1.5812073-7.9140635,1.8660393
			l-0.0381851,0.0058136c-0.7614899,0.1179619-1.5267882,0.1252785-2.2823653,0.0337753
			c-1.1794171-1.3829689-2.227644-2.8784866-3.1319509-4.4669151c1.5454302,0.3131981,2.9234886,0.201149,3.9647994,0.1110497
			C7.6727433,43.1099129,7.8176646,43.0976868,7.954669,43.0874634z M26.8589249,53.9175987
			c-1.4661541,0.8563995-3.2846909,1.8518105-4.0294437,2.2031898c-0.3357449,0.1585541-0.7966671,0.3718262-1.3271446,0.6018372
			c2.2148151,0.5647507,4.5324593,0.8730354,6.9186554,0.8926811c0.0351772-0.020546,0.0273609-0.0137329,0.0626392-0.0352783
			c0.4179268-0.2397346,0.7702084-0.4668388,1.0071354-0.6596642C30.6965408,55.772316,28.9896526,54.1476097,26.8589249,53.9175987
			z M16.0028305,53.0406532c-0.5501204,0.1996422-1.1989603,0.4335632-1.9379005,0.6185722
			c1.7675228,1.0384064,3.6536083,1.8948059,5.6345043,2.5408401c0.8935833-0.3464699,1.8117218-0.7477608,2.6308403-1.1354218
			c0.6107674-0.2886391,2.0299168-1.0584488,3.3267937-1.8007965c0.5911007-1.1965561-0.5343971-2.5799255-2.2863846-2.9734001
			c-2.9958496,1.153862-6.216898,2.3420982-6.9597473,2.6033783C16.2807484,52.9398308,16.1447449,52.9892387,16.0028305,53.0406532
			z M18.8263969,46.2526894c-2.9224854,0.8377571-7.332674,1.9912186-9.6404953,2.341095l-0.0352783,0.0054131
			c-0.4481831,0.0689507-0.8983936,0.1037292-1.3466892,0.1086388c1.4505196,1.514061,3.0624971,2.8696709,4.8114786,4.0416718
			c1.1695957-0.1468277,2.1659069-0.5075264,2.9890337-0.8064919c0.1458235-0.0528183,0.2858343-0.104229,0.4189301-0.1502342
			c0.6938515-0.2442398,2.8304825-1.032589,5.1343956-1.9080315C22.6493931,48.4557762,21.4436054,46.4694672,18.8263969,46.2526894
			z M40.8714218,54.8738213c-0.7281151,0.1977386-2.1521759,0.0920029-4.9366531-1.0653648l-0.1380081-0.0567245
			c-2.1200027-0.8730392-5.063036-2.2100067-5.8617096-2.6196136c-0.3033733-0.1565475-0.6048298-0.3145981-0.9043064-0.4741516
			c-0.2858219-0.1522408-0.6391182-0.0451012-0.7918568,0.238327c-0.1516361,0.2847328-0.0450001,0.6386185,0.2388287,0.7907562
			c0.3063812,0.1634598,0.6136627,0.3240166,0.9229488,0.4825706c0.8124027,0.4184265,3.7338867,1.7489815,5.9517097,2.6621094
			l0.1330948,0.054821c0.8896751,0.3700218,1.9486237,0.772213,2.989048,1.0130463l1.1882248-0.442482L40.8714218,54.8738213z
			 M46.7996826,51.1933517c-1.4104309,0.4134178-3.8180771,0.0307693-6.7053833-1.0952301
			c-0.0665474-0.0264587-0.1105461-0.0430946-0.1320953-0.0509109c-1.8106155-0.6323051-3.6056023-1.3546066-5.334137-2.1458626
			c-0.3337402-0.1512375-0.6644745-0.3063812-0.9934044-0.4649315c-0.2916489-0.1394119-0.6400223-0.0166397-0.7790298,0.2726021
			c-0.1408997,0.2911491-0.0176277,0.640522,0.2721062,0.7800331c0.3366585,0.1610565,0.6742935,0.3196068,1.0139503,0.4751549
			c1.7627106,0.8050842,3.5899658,1.5401154,5.4329567,2.1855507l0.0939064,0.0352783
			c1.39571,0.5451088,3.4814301,1.2263222,5.3723259,1.3246384L46.7996826,51.1933517z M43.7802925,4.2183967
			c-0.1801109,1.977088-0.5031166,3.9350333-0.9650536,5.8597045h-0.0010033
			c-2.5613861,9.9463758-9.8881454,20.7046509-22.8231525,26.5413055c-0.8642197,3.0938683,3.473608,6.260994,13.5515766-0.2711029
			c2.1101837,1.3634262,4.41119,2.5564766,6.8169289,3.6286545c2.5026665,1.1157761,5.1393051,2.0617752,7.9395218,2.8183556
			c0.7623901,0.206459,4.5324593,0.6654778,5.9809723-0.7752228c2.0534592-3.966301,3.2151337-8.4694939,3.2151337-13.2436905
			C57.4952164,18.3963623,52.0094414,9.2970676,43.7802925,4.2183967z M51.5631523,46.2991905
			c-1.4436035,1.1122704-4.2036285,0.8925819-6.2129898,0.336647c-2.3665504-0.6552544-4.6872025-1.4544258-6.8981094-2.37537
			c-0.3474693-0.1444206-0.6939392-0.2931519-1.0385056-0.4433861c-0.2945518-0.130188-0.6400185,0.0049133-0.769207,0.2999649
			c-0.1291733,0.2960587,0.0058136,0.6396217,0.3004684,0.7698097c0.3503761,0.1536407,0.7036629,0.3048782,1.0589485,0.4531059
			c2.2550049,0.9376793,4.6215591,1.7528915,7.0420303,2.4243813c0.6272926,0.1731834,2.0279007,0.5055199,3.5351601,0.5055199
			c0.4727364,0,0.9572105-0.0323715,1.4309616-0.1130486L51.5631523,46.2991905z"/>
	</g>
	<g>
		<g>
			<path class="st3" d="M87.7498779,30.9569397c0-0.9219456,0.1252747-15.0950012,0.1252747-15.0950012l-7.1994858,15.0950012
				h-2.3422012l-7.1750259-15.0950012c0,0,0.1252823,14.4475651,0.1252823,15.0950012h-2.3422012V13.3716116h3.4383316
				l7.1741257,14.8953581l7.1751251-14.8953581h3.3884201v17.5853271H87.7498779z"/>
			<path class="st3" d="M95.4457474,30.9569397V13.3716116h16.2165909v2.1664076h-13.724762v5.2313099h13.3772888v2.0920429
				H97.9375763v5.9291592h14.3726959v2.1664085H95.4457474z"/>
			<path class="st3" d="M116.2193527,13.3716116h8.7421112c1.8418732,0,3.8366013,0,6.0289688,1.4201517
				c2.4644623,1.6182919,3.6115112,4.3333168,3.6115112,7.2484875c0,2.5398369-0.9709473,5.1559429-2.9655762,6.8251476
				c-2.3901062,2.0176773-5.4545059,2.0915413-8.393631,2.0915413h-7.0233841V13.3716116z M124.114769,28.8404427
				c2.1424561,0,4.1107254-0.1746883,5.8293381-1.6941605c1.9917297-1.7690258,2.1170044-4.3587742,2.1170044-5.2058525
				c-0.0254669-2.8897152-1.4700623-5.4804649-4.3847351-6.2521772c-0.8465805-0.2241974-1.8428879-0.2500544-2.7149124-0.2500544
				h-6.2267303v13.4022446H124.114769z"/>
			<path class="st3" d="M138.5344696,30.9569397V13.3716116h16.2156982v2.1664076H141.026413v5.2313099h13.3753967v2.0920429
				H141.026413v5.9291592h14.3716888v2.1664085H138.5344696z"/>
			<path class="st3" d="M159.4559021,26.4489346c0.6734009,0.7218018,1.1940613,1.2953758,2.7893982,1.9433136
				c2.0181732,0.8221245,4.2085419,0.8465786,5.0571442,0.8465786c0.8466644,0,3.1368408,0,4.7067261-1.1960545
				c1.047226-0.7966671,1.1960449-1.8928013,1.1960449-2.3665524c0-2.2417755-2.4919281-2.6147022-4.5335541-2.7888889
				l-2.6895752-0.2500553c-3.4382019-0.3240185-5.0072021-0.447794-6.3010712-1.6433468
				c-1.1959686-1.0956326-1.247879-2.3415985-1.247879-2.9396248c0-2.4653721,1.696167-3.5865602,2.441925-3.9853449
				c1.0463257-0.5730724,2.9645691-1.1456432,5.8040009-1.1456432c5.304657,0,7.6732025,1.942812,8.7928925,3.5366488
				l-2.2902832,0.9219475c-1.5698853-1.4700632-3.3394165-2.3920097-6.4772797-2.3920097
				c-2.6160889,0-5.7794189,0.5740747-5.7794189,2.9401264c0,1.8929005,1.7940826,2.1923656,3.5626068,2.3665524
				l5.4544983,0.5231609c3.5880737,0.3484726,5.7295227,1.942812,5.7295227,4.8320236
				c0,2.6651154-1.7676239,5.7290154-8.6187134,5.7290154c-3.9863586,0-8.1450806-1.0712776-9.9146271-3.9859467
				L159.4559021,26.4489346z"/>
		</g>
		<g>
			<path class="st3" d="M80.8517532,48.0828514l-1.4171448-3.0154953h-7.1486664l-1.4152374,3.0154953h-1.8616333
				l6.0280762-12.2365608h1.7617111l5.9634399,12.2365608H80.8517532z M75.876915,37.5971794l-2.8980331,6.066761h5.7480545
				L75.876915,37.5971794z"/>
			<path class="st3" d="M84.3948212,45.6908417c0.0821762,0.0699539,0.4610214,0.3817444,0.8221207,0.5897064
				c1.2704239,0.6934395,2.8510284,0.7282181,3.229866,0.7282181c1.5806122,0,2.8666687-0.4165268,2.8666687-1.3688393
				c0-0.2261009-0.0821838-0.5559349-0.5118256-0.7805328c-0.7076874-0.3987846-2.2237473-0.3464661-4.1821976-0.5720673
				c-0.6929321-0.0870934-1.4670563-0.2251015-2.060173-0.6758003c-0.4942932-0.381649-0.757576-0.9708557-0.757576-1.6291161
				c0-0.9365807,0.5109329-1.6637917,1.28405-2.0808182c1.120697-0.6057434,3.0154877-0.6057434,3.1799545-0.6057434
				c1.2507782,0,2.5692062,0.2250977,3.6888885,0.8484802c0.5432053,0.312294,0.7907562,0.5207558,0.9884949,0.7287178
				l-1.3673401,0.7971687c-1.3173065-0.9533157-2.9302979-0.9879913-3.4264984-0.9879913
				c-1.136322,0-1.8439941,0.1726837-2.2716446,0.5025139c-0.2955399,0.2427406-0.3454666,0.4688416-0.3454666,0.6596642
				c0,0.154644,0.0655441,0.4673386,0.3943787,0.6572609c0.5608444,0.3464699,2.0759201,0.3987846,3.7710648,0.5554314
				c1.236145,0.1037292,1.8302612,0.2417374,2.3391953,0.588707c0.6263885,0.4335632,0.9395828,1.1270027,0.9395828,1.8893929
				c0,0.1909256-0.0156326,0.6934395-0.2632828,1.160778c-0.889679,1.6643944-3.4921494,1.6986694-4.1674347,1.6986694
				c-0.8241425,0-3.6565323-0.0519142-5.5015259-1.7676239L84.3948212,45.6908417z"/>
			<path class="st3" d="M95.382103,45.6908417c0.0821838,0.0699539,0.460022,0.3817444,0.824028,0.5897064
				c1.2675171,0.6934395,2.8491211,0.7282181,3.2279663,0.7282181c1.5806046,0,2.8666611-0.4165268,2.8666611-1.3688393
				c0-0.2261009-0.0841827-0.5559349-0.5118332-0.7805328c-0.7076721-0.3987846-2.2227325-0.3464661-4.1831741-0.5720673
				c-0.6919479-0.0870934-1.4661636-0.2251015-2.0601883-0.6758003c-0.4922867-0.381649-0.7565765-0.9708557-0.7565765-1.6291161
				c0-0.9365807,0.5109329-1.6637917,1.28405-2.0808182c1.1216888-0.6057434,3.0154953-0.6057434,3.1799622-0.6057434
				c1.2517776,0,2.5691986,0.2250977,3.6897888,0.8484802c0.5432053,0.312294,0.7898483,0.5207558,0.9885941,0.7287178
				l-1.3683395,0.7971687c-1.3173218-0.9533157-2.932312-0.9879913-3.4255066-0.9879913
				c-1.136322,0-1.8439865,0.1726837-2.2736435,0.5025139c-0.2965546,0.2427406-0.3464661,0.4688416-0.3464661,0.6596642
				c0,0.154644,0.0665436,0.4673386,0.3963776,0.6572609c0.559845,0.3464699,2.0759048,0.3987846,3.7720718,0.5554314
				c1.233139,0.1037292,1.8282547,0.2417374,2.3381882,0.588707c0.6253891,0.4335632,0.9395828,1.1270027,0.9395828,1.8893929
				c0,0.1909256-0.0176392,0.6934395-0.2642822,1.160778c-0.8886719,1.6643944-3.4911499,1.6986694-4.1664505,1.6986694
				c-0.8241272,0-3.6575165-0.0519142-5.5015106-1.7676239L95.382103,45.6908417z"/>
			<path class="st3" d="M110.7335739,48.3427277c-3.0468597,0-5.2694931-1.6286163-5.2694931-4.3152771
				c0-3.466095,3.0613937-4.6112366,5.2195816-4.6112366c2.5368347,0,5.2694931,1.1793175,5.2694931,4.4733276
				C115.9531555,46.3324661,114.0582657,48.3427277,110.7335739,48.3427277z M110.6512909,40.7688179
				c-1.7949829,0-3.6065903,1.0755844-3.6065903,3.1548996c0,1.7671242,1.4994125,3.0502701,3.7720566,3.0502701
				c1.5639725,0,3.5723267-0.8667221,3.5723267-3.1197243C114.3890839,41.5317116,112.2652893,40.7688179,110.6512909,40.7688179z"
				/>
			<path class="st3" d="M127.6313934,45.8293495c-0.7574997,1.5434227-2.4047546,2.5481529-4.8897705,2.5481529
				c-3.147583,0-5.3047714-1.5072441-5.3047714-4.5760536c0-2.8589478,2.3381882-4.4190102,5.3527908-4.4190102
				c2.5035629,0,4.0666122,1.1093636,4.7585678,2.5647926l-1.4984436,0.4516029
				c-0.559845-1.0579491-1.6971664-1.71661-3.2601242-1.71661c-1.8939133,0-3.6888962,1.0740852-3.6888962,3.2581329
				c0,2.2711372,2.0738983,3.120224,3.7035141,3.120224c1.6148911,0,2.8177567-0.6934395,3.3276901-1.6467552
				L127.6313934,45.8293495z"/>
			<path class="st3" d="M129.3108978,38.2035217v-1.6633911h1.5483398v1.6633911H129.3108978z M129.328537,48.0828514v-8.4576721
				h1.5639801v8.4576721H129.328537z"/>
			<path class="st3" d="M142.0089874,48.1699409c-1.366333,0-1.4817963-0.8143044-1.5483398-1.4391937
				c-0.2955475,0.6248894-1.4641418,1.6638947-3.8698883,1.6638947c-3.0625,0-3.7700653-1.7328453-3.7700653-2.9117622
				c0-1.4554291,0.986496-2.0798149,1.4152374-2.2701378c0.7751312-0.3646088,2.0258942-0.3983841,3.9208221-0.3983841h2.288269
				v-0.207962c0-1.0399094-0.0176392-2.0450401-2.6680298-2.0450401c-1.2019653,0-2.5016327,0.2251015-2.8491211,1.10886
				l-1.5807037-0.1561432c0.0176392-0.0684547,0.1644592-0.5201569,0.3621979-0.8318481
				c0.311203-0.4844742,1.0041351-1.3169212,3.9853668-1.3169212c0.2289886,0,1.3663177,0.0171356,2.2882538,0.2598763
				c0.2153778,0.051815,1.0541534,0.2427368,1.5317993,0.9185371c0.3963776,0.5539284,0.3963776,1.1264992,0.3963776,1.7680244
				v3.3791008c0,0.9709549,0.1467285,1.3012886,0.9033051,1.3012886c0.1497345,0,0.5774841-0.053421,0.5774841-0.053421v1.1441422
				C142.9309387,48.1181297,142.4700165,48.1699409,142.0089874,48.1699409z M137.5146179,44.0793648
				c-1.5816193,0-3.1299591,0-3.1299591,1.3863754c0,0.8324471,0.7243347,1.6643944,2.3215637,1.6643944
				c0.9395752,0,2.7189331-0.2256012,3.4588776-1.6643944c0.2955475-0.5892067,0.2799225-1.1436386,0.2955475-1.3863754H137.5146179
				z"/>
			<path class="st3" d="M146.5218964,40.7516785v4.5232391c0,1.0750847,0.1498413,1.4729691,1.120697,1.4729691
				c0.4953156,0,0.9865875-0.1027298,1.1353149-0.1208687v1.4558334c-0.5089264,0.0695534-1.0354919,0.1218681-1.5639648,0.1218681
				c-0.5921173,0-1.2997894-0.0694542-1.7617188-0.5377922c-0.3954773-0.4155235-0.460022-0.8662224-0.460022-1.9236717v-4.9915771
				h-1.3683167v-1.1264992h1.4015961v-2.9294014h1.5464325v2.9294014h2.2392731v1.1264992H146.5218964z"/>
			<path class="st3" d="M150.2460632,38.2035217v-1.6633911h1.5463409v1.6633911H150.2460632z M150.2606964,48.0828514v-8.4576721
				h1.5649719v8.4576721H150.2606964z"/>
			<path class="st3" d="M159.12117,48.3427277c-3.0457611,0-5.2695007-1.6286163-5.2695007-4.3152771
				c0-3.466095,3.0635071-4.6112366,5.2205811-4.6112366c2.5369415,0,5.2695007,1.1793175,5.2695007,4.4733276
				C164.3417511,46.3324661,162.4479523,48.3427277,159.12117,48.3427277z M159.0389862,40.7688179
				c-1.7939911,0-3.6056061,1.0755844-3.6056061,3.1548996c0,1.7671242,1.4974213,3.0502701,3.7709656,3.0502701
				c1.5650787,0,3.5734406-0.8667221,3.5734406-3.1197243C162.7777863,41.5317116,160.6538696,40.7688179,159.0389862,40.7688179z"
				/>
			<path class="st3" d="M174.2583618,48.0828514v-4.4713249c0-0.7286186-0.0666351-1.0399094-0.2133789-1.3863792
				c-0.2995605-0.7282143-1.1226807-1.4386902-2.7679443-1.4386902c-1.1685944,0-2.586731,0.3982811-3.1123047,1.7851601
				c-0.1811066,0.4854774-0.1977386,0.9704552-0.1977386,1.4906082v4.0206261h-1.5649719v-8.4576721h1.5649719v1.0217667
				c0.2799225-0.2422371,0.5754852-0.5363884,1.2176208-0.8138046c0.4795532-0.207962,1.2527771-0.4507027,2.3714447-0.4507027
				c1.99263,0,3.4587708,0.8494873,3.9853516,2.1144943c0.2632751,0.6582603,0.2632751,1.3174248,0.2632751,2.0108643v4.5750542
				H174.2583618z"/>
		</g>
	</g>
</g>
</svg>
